<?xml version="1.0" encoding="UTF-8"?>
<!DOCTYPE svg PUBLIC "-//W3C//DTD SVG 1.1//EN" "http://www.w3.org/Graphics/SVG/1.1/DTD/svg11.dtd">
<svg xmlns="http://www.w3.org/2000/svg" version="1.1" width="395px" height="393px" style="shape-rendering:geometricPrecision; text-rendering:geometricPrecision; image-rendering:optimizeQuality; fill-rule:evenodd; clip-rule:evenodd" xmlns:xlink="http://www.w3.org/1999/xlink">
<g><path style="opacity:1" fill="#fefffe" d="M 7.5,-0.5 C 129.5,-0.5 251.5,-0.5 373.5,-0.5C 391.418,6.3468 397.252,19.0135 391,37.5C 347.948,90.4431 304.781,143.276 261.5,196C 304.781,248.724 347.948,301.557 391,354.5C 397.324,373.516 391.157,386.183 372.5,392.5C 250.833,392.5 129.167,392.5 7.5,392.5C 4.87627,390.899 2.20961,389.232 -0.5,387.5C -0.5,259.833 -0.5,132.167 -0.5,4.5C 1.89969,2.30566 4.56635,0.638994 7.5,-0.5 Z M 33.5,36.5 C 136.502,36.1667 239.502,36.5 342.5,37.5C 307.619,80.0921 272.619,122.592 237.5,165C 236.5,165.667 235.5,165.667 234.5,165C 219.979,152.568 205.646,139.902 191.5,127C 188.785,125.092 185.785,123.759 182.5,123C 157.502,122.5 132.502,122.333 107.5,122.5C 107.5,134.833 107.5,147.167 107.5,159.5C 128.503,159.333 149.503,159.5 170.5,160C 184.463,171.628 198.13,183.628 211.5,196C 199.5,206.333 187.5,216.667 175.5,227C 153.836,227.5 132.169,227.667 110.5,227.5C 110.5,240.167 110.5,252.833 110.5,265.5C 136.21,265.953 161.877,265.453 187.5,264C 189.949,263.275 192.283,262.275 194.5,261C 208.333,249.167 222.167,237.333 236,225.5C 271.5,268.333 307,311.167 342.5,354C 239.501,354.5 136.501,354.667 33.5,354.5C 33.5,248.5 33.5,142.5 33.5,36.5 Z"/></g>
</svg>
